<svg id="visual" viewBox="0 0 900 150" width="900" height="150" xmlns="http://www.w3.org/2000/svg" xmlns:xlink="http://www.w3.org/1999/xlink" version="1.1"><path d="M0 90L18.8 90.8C37.7 91.7 75.3 93.3 112.8 93.2C150.3 93 187.7 91 225.2 93.3C262.7 95.7 300.3 102.3 337.8 103.2C375.3 104 412.7 99 450.2 99.2C487.7 99.3 525.3 104.7 562.8 106.3C600.3 108 637.7 106 675.2 104.7C712.7 103.3 750.3 102.7 787.8 101.2C825.3 99.7 862.7 97.3 881.3 96.2L900 95L900 151L881.3 151C862.7 151 825.3 151 787.8 151C750.3 151 712.7 151 675.2 151C637.7 151 600.3 151 562.8 151C525.3 151 487.7 151 450.2 151C412.7 151 375.3 151 337.8 151C300.3 151 262.7 151 225.2 151C187.7 151 150.3 151 112.8 151C75.3 151 37.7 151 18.8 151L0 151Z" fill="#f8ec7d"></path><path d="M0 112L18.8 113C37.7 114 75.3 116 112.8 113.7C150.3 111.3 187.7 104.7 225.2 103.2C262.7 101.7 300.3 105.3 337.8 107.7C375.3 110 412.7 111 450.2 112.7C487.7 114.3 525.3 116.7 562.8 114.7C600.3 112.7 637.7 106.3 675.2 105.3C712.7 104.3 750.3 108.7 787.8 110.3C825.3 112 862.7 111 881.3 110.5L900 110L900 151L881.3 151C862.7 151 825.3 151 787.8 151C750.3 151 712.7 151 675.2 151C637.7 151 600.3 151 562.8 151C525.3 151 487.7 151 450.2 151C412.7 151 375.3 151 337.8 151C300.3 151 262.7 151 225.2 151C187.7 151 150.3 151 112.8 151C75.3 151 37.7 151 18.8 151L0 151Z" fill="#ffcb96"></path><path d="M0 126L18.8 123.3C37.7 120.7 75.3 115.3 112.8 113.5C150.3 111.7 187.7 113.3 225.2 115.8C262.7 118.3 300.3 121.7 337.8 121.5C375.3 121.3 412.7 117.7 450.2 115.8C487.7 114 525.3 114 562.8 114.3C600.3 114.7 637.7 115.3 675.2 116.5C712.7 117.7 750.3 119.3 787.8 119.5C825.3 119.7 862.7 118.3 881.3 117.7L900 117L900 151L881.3 151C862.7 151 825.3 151 787.8 151C750.3 151 712.7 151 675.2 151C637.7 151 600.3 151 562.8 151C525.3 151 487.7 151 450.2 151C412.7 151 375.3 151 337.8 151C300.3 151 262.7 151 225.2 151C187.7 151 150.3 151 112.8 151C75.3 151 37.7 151 18.8 151L0 151Z" fill="#ffbbb9"></path><path d="M0 131L18.8 129.8C37.7 128.7 75.3 126.3 112.8 125.2C150.3 124 187.7 124 225.2 124.3C262.7 124.7 300.3 125.3 337.8 125.7C375.3 126 412.7 126 450.2 126.2C487.7 126.3 525.3 126.7 562.8 125.7C600.3 124.7 637.7 122.3 675.2 123.7C712.7 125 750.3 130 787.8 131.5C825.3 133 862.7 131 881.3 130L900 129L900 151L881.3 151C862.7 151 825.3 151 787.8 151C750.3 151 712.7 151 675.2 151C637.7 151 600.3 151 562.8 151C525.3 151 487.7 151 450.2 151C412.7 151 375.3 151 337.8 151C300.3 151 262.7 151 225.2 151C187.7 151 150.3 151 112.8 151C75.3 151 37.7 151 18.8 151L0 151Z" fill="#fbb8da"></path><path d="M0 141L18.8 139.5C37.7 138 75.3 135 112.8 135C150.3 135 187.7 138 225.2 139.3C262.7 140.7 300.3 140.3 337.8 139.5C375.3 138.7 412.7 137.3 450.2 136C487.7 134.7 525.3 133.3 562.8 134C600.3 134.7 637.7 137.3 675.2 138.5C712.7 139.7 750.3 139.3 787.8 139.5C825.3 139.7 862.7 140.3 881.3 140.7L900 141L900 151L881.3 151C862.7 151 825.3 151 787.8 151C750.3 151 712.7 151 675.2 151C637.7 151 600.3 151 562.8 151C525.3 151 487.7 151 450.2 151C412.7 151 375.3 151 337.8 151C300.3 151 262.7 151 225.2 151C187.7 151 150.3 151 112.8 151C75.3 151 37.7 151 18.8 151L0 151Z" fill="#dcc0fc"></path></svg>