<svg id="visual" viewBox="0 0 900 150" width="900" height="150" xmlns="http://www.w3.org/2000/svg" xmlns:xlink="http://www.w3.org/1999/xlink" version="1.1"><path d="M0 58L18.8 57.2C37.7 56.3 75.3 54.7 112.8 54.8C150.3 55 187.7 57 225.2 54.7C262.7 52.3 300.3 45.7 337.8 44.8C375.3 44 412.7 49 450.2 48.8C487.7 48.7 525.3 43.3 562.8 41.7C600.3 40 637.7 42 675.2 43.3C712.7 44.7 750.3 45.3 787.8 46.8C825.3 48.3 862.7 50.7 881.3 51.8L900 53L900 0L881.3 0C862.7 0 825.3 0 787.8 0C750.3 0 712.7 0 675.2 0C637.7 0 600.3 0 562.8 0C525.3 0 487.7 0 450.2 0C412.7 0 375.3 0 337.8 0C300.3 0 262.7 0 225.2 0C187.7 0 150.3 0 112.8 0C75.3 0 37.7 0 18.8 0L0 0Z" fill="#f8ec7d"></path><path d="M0 36L18.8 35C37.7 34 75.3 32 112.8 34.3C150.3 36.7 187.7 43.3 225.2 44.8C262.7 46.3 300.3 42.7 337.8 40.3C375.3 38 412.7 37 450.2 35.3C487.7 33.7 525.3 31.3 562.8 33.3C600.3 35.3 637.7 41.7 675.2 42.7C712.7 43.7 750.3 39.3 787.8 37.7C825.3 36 862.7 37 881.3 37.5L900 38L900 0L881.3 0C862.7 0 825.3 0 787.8 0C750.3 0 712.7 0 675.2 0C637.7 0 600.3 0 562.8 0C525.3 0 487.7 0 450.2 0C412.7 0 375.3 0 337.8 0C300.3 0 262.7 0 225.2 0C187.7 0 150.3 0 112.8 0C75.3 0 37.7 0 18.8 0L0 0Z" fill="#ffcb96"></path><path d="M0 22L18.8 24.7C37.7 27.3 75.3 32.7 112.8 34.5C150.3 36.3 187.7 34.7 225.2 32.2C262.7 29.7 300.3 26.3 337.8 26.5C375.3 26.7 412.7 30.3 450.2 32.2C487.7 34 525.3 34 562.8 33.7C600.3 33.3 637.7 32.7 675.2 31.5C712.7 30.3 750.3 28.7 787.8 28.5C825.3 28.3 862.7 29.7 881.3 30.3L900 31L900 0L881.3 0C862.7 0 825.3 0 787.8 0C750.3 0 712.7 0 675.2 0C637.7 0 600.3 0 562.8 0C525.3 0 487.7 0 450.2 0C412.7 0 375.3 0 337.8 0C300.3 0 262.7 0 225.2 0C187.7 0 150.3 0 112.8 0C75.3 0 37.7 0 18.8 0L0 0Z" fill="#ffbbb9"></path><path d="M0 17L18.8 18.2C37.7 19.3 75.3 21.7 112.8 22.8C150.3 24 187.7 24 225.2 23.7C262.7 23.3 300.3 22.7 337.8 22.3C375.3 22 412.7 22 450.2 21.8C487.7 21.7 525.3 21.3 562.8 22.3C600.3 23.3 637.7 25.7 675.2 24.3C712.7 23 750.3 18 787.8 16.5C825.3 15 862.7 17 881.3 18L900 19L900 0L881.3 0C862.7 0 825.3 0 787.8 0C750.3 0 712.7 0 675.2 0C637.7 0 600.3 0 562.8 0C525.3 0 487.7 0 450.2 0C412.7 0 375.3 0 337.8 0C300.3 0 262.7 0 225.2 0C187.7 0 150.3 0 112.8 0C75.3 0 37.7 0 18.8 0L0 0Z" fill="#fbb8da"></path><path d="M0 7L18.8 8.5C37.7 10 75.3 13 112.8 13C150.3 13 187.7 10 225.2 8.7C262.7 7.3 300.3 7.7 337.8 8.5C375.3 9.3 412.7 10.7 450.2 12C487.7 13.3 525.3 14.7 562.8 14C600.3 13.3 637.7 10.7 675.2 9.5C712.7 8.3 750.3 8.7 787.8 8.5C825.3 8.3 862.7 7.7 881.3 7.3L900 7L900 0L881.3 0C862.7 0 825.3 0 787.8 0C750.3 0 712.7 0 675.2 0C637.7 0 600.3 0 562.8 0C525.3 0 487.7 0 450.2 0C412.7 0 375.3 0 337.8 0C300.3 0 262.7 0 225.2 0C187.7 0 150.3 0 112.8 0C75.3 0 37.7 0 18.8 0L0 0Z" fill="#dcc0fc"></path></svg>